<svg width="21" height="23" viewBox="0 0 21 23" fill="none" xmlns="http://www.w3.org/2000/svg">
<path fill-rule="evenodd" clip-rule="evenodd" d="M17.3125 12.9062C17.4688 13.8437 17.625 14.625 17.9375 15.5625L18.875 18.2188L18.0938 19.3125H12.625C12.625 20.0938 12.3125 20.875 11.6875 21.5C11.0625 22.125 10.2812 22.4375 9.5 22.4375C8.71875 22.4375 7.78125 22.125 7.3125 21.5C6.6875 20.875 6.375 20.0938 6.375 19.3125H0.90625L0.125 18.2188L1.0625 15.5625C1.375 14.3125 1.6875 13.0625 1.6875 11.8125V8.375C1.6875 7.28125 1.84375 6.1875 2.3125 5.25C2.78125 4.15625 3.40625 3.375 4.1875 2.59375C4.96875 1.8125 5.90625 1.34375 7 1.03125C7.78125 0.71875 8.71875 0.5625 9.5 0.5625C9.1875 1.03125 8.875 1.65625 8.5625 2.28125C8.25 2.28125 7.9375 2.28125 7.46875 2.59375C6.6875 2.75 5.90625 3.21875 5.28125 3.84375C4.65625 4.3125 4.03125 5.09375 3.71875 5.875C3.40625 6.65625 3.25 7.4375 3.25 8.375V11.8125C3.25 13.2188 2.9375 14.625 2.625 16.0312L2 17.75H17L16.375 16.0312C16.1016 15.2094 15.9469 14.2656 15.8078 13.4156L15.75 13.0625C16.375 13.0625 16.8438 13.0625 17.3125 12.9062ZM9.5 20.875C9.8125 20.875 10.2812 20.7188 10.5938 20.4062C10.9062 20.0938 11.0625 19.7812 11.0625 19.3125H7.9375C7.9375 19.7812 8.09375 20.0938 8.40625 20.4062C8.71875 20.7188 9.1875 20.875 9.5 20.875ZM20.4375 5.25C20.4375 6.4932 19.9436 7.68549 19.0646 8.56456C18.1855 9.44364 16.9932 9.9375 15.75 9.9375C14.5068 9.9375 13.3145 9.44364 12.4354 8.56456C11.5564 7.68549 11.0625 6.4932 11.0625 5.25C11.0625 4.0068 11.5564 2.81451 12.4354 1.93544C13.3145 1.05636 14.5068 0.5625 15.75 0.5625C16.9932 0.5625 18.1855 1.05636 19.0646 1.93544C19.9436 2.81451 20.4375 4.0068 20.4375 5.25Z" fill="#EF3024"/>
</svg>
