<svg width="26" height="28" viewBox="0 0 26 28" fill="none" xmlns="http://www.w3.org/2000/svg">
<path fill-rule="evenodd" clip-rule="evenodd" d="M21.375 15.6875C21.5625 16.8125 21.75 17.75 22.125 18.875L23.25 22.0625L22.3125 23.375H15.75C15.75 24.3125 15.375 25.25 14.625 26C13.875 26.75 12.9375 27.125 12 27.125C11.0625 27.125 9.9375 26.75 9.375 26C8.625 25.25 8.25 24.3125 8.25 23.375H1.6875L0.75 22.0625L1.875 18.875C2.25 17.375 2.625 15.875 2.625 14.375V10.25C2.625 8.9375 2.8125 7.625 3.375 6.5C3.9375 5.1875 4.6875 4.25 5.625 3.3125C6.5625 2.375 7.6875 1.8125 9 1.4375C9.9375 1.0625 11.0625 0.875 12 0.875C11.625 1.4375 11.25 2.1875 10.875 2.9375C10.5 2.9375 10.125 2.9375 9.5625 3.3125C8.625 3.5 7.6875 4.0625 6.9375 4.8125C6.1875 5.375 5.4375 6.3125 5.0625 7.25C4.6875 8.1875 4.5 9.125 4.5 10.25V14.375C4.5 16.0625 4.125 17.75 3.75 19.4375L3 21.5H21L20.25 19.4375C19.9219 18.4513 19.7362 17.3188 19.5694 16.2987L19.5 15.875C20.25 15.875 20.8125 15.875 21.375 15.6875ZM12 25.25C12.375 25.25 12.9375 25.0625 13.3125 24.6875C13.6875 24.3125 13.875 23.9375 13.875 23.375H10.125C10.125 23.9375 10.3125 24.3125 10.6875 24.6875C11.0625 25.0625 11.625 25.25 12 25.25ZM25.125 6.5C25.125 7.99184 24.5324 9.42258 23.4775 10.4775C22.4226 11.5324 20.9918 12.125 19.5 12.125C18.0082 12.125 16.5774 11.5324 15.5225 10.4775C14.4676 9.42258 13.875 7.99184 13.875 6.5C13.875 5.00816 14.4676 3.57742 15.5225 2.52252C16.5774 1.46763 18.0082 0.875 19.5 0.875C20.9918 0.875 22.4226 1.46763 23.4775 2.52252C24.5324 3.57742 25.125 5.00816 25.125 6.5Z" fill="#EF3024"/>
</svg>
