<svg width="19" height="21" viewBox="0 0 19 21" fill="none" xmlns="http://www.w3.org/2000/svg">
<path d="M4.29169 9.45833H6.37502V11.5417H4.29169V9.45833ZM4.29169 13.625H6.37502V15.7083H4.29169V13.625ZM8.45835 9.45833H10.5417V11.5417H8.45835V9.45833ZM8.45835 13.625H10.5417V15.7083H8.45835V13.625ZM12.625 9.45833H14.7084V11.5417H12.625V9.45833ZM12.625 13.625H14.7084V15.7083H12.625V13.625Z" fill="#293340"/>
<path d="M2.20833 20.9167H16.7917C17.9406 20.9167 18.875 19.9823 18.875 18.8333V4.25C18.875 3.10104 17.9406 2.16667 16.7917 2.16667H14.7083V0.0833359H12.625V2.16667H6.375V0.0833359H4.29167V2.16667H2.20833C1.05937 2.16667 0.125 3.10104 0.125 4.25V18.8333C0.125 19.9823 1.05937 20.9167 2.20833 20.9167ZM16.7917 6.33334L16.7927 18.8333H2.20833V6.33334H16.7917Z" fill="#293340"/>
</svg>
