<svg width="19" height="19" viewBox="0 0 19 19" fill="none" xmlns="http://www.w3.org/2000/svg">
<path d="M18.875 16.0104C18.875 16.7702 18.5732 17.4988 18.036 18.036C17.4988 18.5732 16.7702 18.875 16.0104 18.875L5.63125 18.875C5.18651 18.8751 4.7461 18.7876 4.33519 18.6174C3.92428 18.4473 3.55093 18.1978 3.23646 17.8833L1.11667 15.7635C0.481251 15.1281 0.125 14.2667 0.125 13.3687L0.125001 2.98958C0.125001 2.22985 0.426805 1.50123 0.964019 0.964016C1.50123 0.426802 2.22985 0.124999 2.98959 0.124999L16.0104 0.125C16.7702 0.125 17.4988 0.426803 18.036 0.964018C18.5732 1.50123 18.875 2.22985 18.875 2.98958L18.875 16.0104ZM16.0104 17.3125C16.7292 17.3125 17.3125 16.7292 17.3125 16.0104L17.3125 2.98958C17.3125 2.27083 16.7292 1.6875 16.0104 1.6875L15.75 1.6875L15.75 7.15625C15.75 7.77785 15.5031 8.37399 15.0635 8.81353C14.624 9.25307 14.0279 9.5 13.4063 9.5L5.59375 9.5C4.97215 9.5 4.37601 9.25307 3.93647 8.81353C3.49693 8.37399 3.25 7.77785 3.25 7.15625L3.25 1.6875L2.98959 1.6875C2.27084 1.6875 1.6875 2.27083 1.6875 2.98958L1.6875 13.3687C1.6875 13.8531 1.87917 14.3167 2.22188 14.6583L4.34167 16.7781C4.61078 17.0477 4.95757 17.2262 5.33333 17.2885L5.33333 14.4479C5.33333 14.1401 5.39396 13.8354 5.51174 13.551C5.62953 13.2666 5.80217 13.0083 6.0198 12.7906C6.23744 12.573 6.49581 12.4004 6.78017 12.2826C7.06453 12.1648 7.3693 12.1042 7.67708 12.1042L12.3646 12.1042C12.9862 12.1042 13.5823 12.3511 14.0219 12.7906C14.4614 13.2302 14.7083 13.8263 14.7083 14.4479L14.7083 17.3125L16.0104 17.3125ZM4.8125 1.6875L4.8125 7.15625C4.8125 7.36345 4.89481 7.56216 5.04132 7.70868C5.18784 7.85519 5.38655 7.9375 5.59375 7.9375L13.4063 7.9375C13.6135 7.9375 13.8122 7.85519 13.9587 7.70868C14.1052 7.56216 14.1875 7.36345 14.1875 7.15625L14.1875 1.6875L4.8125 1.6875ZM13.1458 17.3125L13.1458 14.4479C13.1458 14.0167 12.7958 13.6667 12.3646 13.6667L7.67708 13.6667C7.46988 13.6667 7.27117 13.749 7.12466 13.8955C6.97815 14.042 6.89583 14.2407 6.89583 14.4479L6.89583 17.3125L13.1458 17.3125Z" fill="#EF3024"/>
</svg>
