<svg width="25" height="19" viewBox="0 0 25 19" fill="none" xmlns="http://www.w3.org/2000/svg">
<path d="M13.2812 9.5C13.7127 9.5 14.0625 9.15022 14.0625 8.71875C14.0625 8.28728 13.7127 7.9375 13.2812 7.9375C12.8498 7.9375 12.5 8.28728 12.5 8.71875C12.5 9.15022 12.8498 9.5 13.2812 9.5Z" stroke="#293340" stroke-width="2" stroke-linecap="round" stroke-linejoin="round"/>
<path d="M12.5 14.1875C15.0888 14.1875 17.1875 12.0888 17.1875 9.5C17.1875 6.91117 15.0888 4.8125 12.5 4.8125C9.91117 4.8125 7.8125 6.91117 7.8125 9.5C7.8125 12.0888 9.91117 14.1875 12.5 14.1875Z" stroke="#293340" stroke-width="2" stroke-linecap="round" stroke-linejoin="round"/>
<path d="M1.5625 9.5C1.5625 9.5 5.46875 1.6875 12.5 1.6875C19.5312 1.6875 23.4375 9.5 23.4375 9.5C23.4375 9.5 19.5312 17.3125 12.5 17.3125C5.46875 17.3125 1.5625 9.5 1.5625 9.5Z" stroke="#293340" stroke-width="2" stroke-linecap="round" stroke-linejoin="round"/>
</svg>
