<svg width="30" height="30" viewBox="0 0 30 30" fill="none" xmlns="http://www.w3.org/2000/svg">
<path d="M19.875 12.5625C19.875 12.347 19.9606 12.1403 20.113 11.988C20.2653 11.8356 20.472 11.75 20.6875 11.75H22.3125C22.528 11.75 22.7347 11.8356 22.887 11.988C23.0394 12.1403 23.125 12.347 23.125 12.5625V14.1875C23.125 14.403 23.0394 14.6097 22.887 14.762C22.7347 14.9144 22.528 15 22.3125 15H20.6875C20.472 15 20.2653 14.9144 20.113 14.762C19.9606 14.6097 19.875 14.403 19.875 14.1875V12.5625Z" fill="#4F5C6C"/>
<path d="M7.6875 2C7.90299 2 8.10965 2.0856 8.26202 2.23798C8.4144 2.39035 8.5 2.59701 8.5 2.8125V3.625H21.5V2.8125C21.5 2.59701 21.5856 2.39035 21.738 2.23798C21.8903 2.0856 22.097 2 22.3125 2C22.528 2 22.7347 2.0856 22.887 2.23798C23.0394 2.39035 23.125 2.59701 23.125 2.8125V3.625H24.75C25.612 3.625 26.4386 3.96741 27.0481 4.5769C27.6576 5.1864 28 6.01305 28 6.875V24.75C28 25.612 27.6576 26.4386 27.0481 27.0481C26.4386 27.6576 25.612 28 24.75 28H5.25C4.38805 28 3.5614 27.6576 2.9519 27.0481C2.34241 26.4386 2 25.612 2 24.75V6.875C2 6.01305 2.34241 5.1864 2.9519 4.5769C3.5614 3.96741 4.38805 3.625 5.25 3.625H6.875V2.8125C6.875 2.59701 6.9606 2.39035 7.11298 2.23798C7.26535 2.0856 7.47201 2 7.6875 2V2ZM3.625 8.5V24.75C3.625 25.181 3.7962 25.5943 4.10095 25.899C4.4057 26.2038 4.81902 26.375 5.25 26.375H24.75C25.181 26.375 25.5943 26.2038 25.899 25.899C26.2038 25.5943 26.375 25.181 26.375 24.75V8.5H3.625Z" fill="#4F5C6C"/>
</svg>
