<svg width="30" height="30" viewBox="0 0 30 30" fill="none" xmlns="http://www.w3.org/2000/svg">
<path d="M15 8.30001C15.4418 8.30001 15.8 7.94184 15.8 7.50001C15.8 7.05818 15.4418 6.70001 15 6.70001C14.5581 6.70001 14.2 7.05818 14.2 7.50001C14.2 7.94184 14.5581 8.30001 15 8.30001Z" fill="#4F5C6C"/>
<path d="M22 21.8H8V23.3H22V21.8Z" fill="#4F5C6C"/>
<path d="M12.5 14.1L9.29995 17.3L8.19995 16.3L12.5 12L16 15.5L19.8 11.6L18.7 10.5H22V13.8L20.9 12.6L16 17.6L12.5 14.1Z" fill="#4F5C6C"/>
<path d="M6.3 28.3C5.4 28.3 4.6 28 4 27.3C3.4 26.7 3 25.9 3 25V7.50001C3 6.60001 3.3 5.80001 4 5.20001C4.6 4.60001 5.4 4.20001 6.3 4.20001H10.7L10.8 4.00001C10.9 3.80001 11 3.70001 11.2 3.50001C12.1 2.50001 13.2 1.90001 14.5 1.80001C14.7 1.80001 14.9 1.70001 15 1.70001C15.1 1.70001 15.3 1.70001 15.5 1.70001C16.8 1.80001 18 2.50001 18.8 3.40001C19 3.70001 19.1 3.90001 19.2 4.00001L19.3 4.20001H23.7C24.6 4.20001 25.4 4.50001 26 5.20001C26.6 5.80001 27 6.60001 27 7.50001V25C27 25.9 26.7 26.7 26 27.3C25.4 27.9 24.6 28.3 23.7 28.3H6.3ZM6.2 5.80001C5.8 5.80001 5.3 5.90001 5 6.30001C4.7 6.60001 4.5 7.00001 4.5 7.50001V25C4.5 25.5 4.7 25.9 5 26.2C5.3 26.5 5.8 26.7 6.2 26.7H23.7C24.2 26.7 24.6 26.5 24.9 26.2C25.2 25.9 25.4 25.4 25.4 25V7.50001C25.4 7.00001 25.2 6.60001 24.9 6.30001C24.6 6.00001 24.1 5.80001 23.7 5.80001H18.4C18.2 5.10001 17.8 4.60001 17.2 4.10001C16.6 3.60001 15.7 3.30001 14.9 3.30001C14.1 3.30001 13.3 3.60001 12.6 4.10001C12.1 4.50001 11.7 5.10001 11.4 5.80001H6.2Z" fill="#4F5C6C"/>
</svg>
