<svg width="30" height="30" viewBox="0 0 30 30" fill="none" xmlns="http://www.w3.org/2000/svg">
<path d="M15.9375 19.6875V12.1875H12.1875V14.0625H14.0625V19.6875H11.25V21.5625H18.75V19.6875H15.9375Z" fill="#EF3024"/>
<path d="M15 7.5C14.7219 7.5 14.45 7.58247 14.2187 7.737C13.9875 7.89152 13.8072 8.11114 13.7008 8.3681C13.5944 8.62506 13.5665 8.90781 13.6208 9.1806C13.675 9.45338 13.809 9.70395 14.0056 9.90062C14.2023 10.0973 14.4529 10.2312 14.7257 10.2855C14.9984 10.3397 15.2812 10.3119 15.5381 10.2055C15.7951 10.099 16.0147 9.91878 16.1693 9.68752C16.3238 9.45626 16.4063 9.18438 16.4063 8.90625C16.4063 8.53329 16.2581 8.1756 15.9944 7.91188C15.7306 7.64816 15.373 7.5 15 7.5Z" fill="#EF3024"/>
<path d="M15 28.125C12.4041 28.125 9.86654 27.3552 7.70815 25.913C5.54975 24.4709 3.86749 22.421 2.87409 20.0227C1.88069 17.6244 1.62077 14.9854 2.1272 12.4394C2.63363 9.89345 3.88367 7.55479 5.71923 5.71923C7.55479 3.88367 9.89345 2.63363 12.4394 2.1272C14.9854 1.62077 17.6244 1.88069 20.0227 2.87409C22.421 3.86749 24.4709 5.54975 25.913 7.70815C27.3552 9.86654 28.125 12.4041 28.125 15C28.125 18.481 26.7422 21.8194 24.2808 24.2808C21.8194 26.7422 18.481 28.125 15 28.125ZM15 3.75001C12.775 3.75001 10.5999 4.40981 8.74984 5.64597C6.89979 6.88214 5.45785 8.63915 4.60636 10.6948C3.75488 12.7505 3.53209 15.0125 3.96617 17.1948C4.40026 19.3771 5.47171 21.3816 7.04505 22.955C8.6184 24.5283 10.623 25.5998 12.8052 26.0338C14.9875 26.4679 17.2495 26.2451 19.3052 25.3937C21.3609 24.5422 23.1179 23.1002 24.354 21.2502C25.5902 19.4001 26.25 17.225 26.25 15C26.25 12.0163 25.0647 9.15484 22.955 7.04505C20.8452 4.93527 17.9837 3.75001 15 3.75001Z" fill="#EF3024"/>
</svg>
