<svg width="155" height="20" viewBox="0 0 155 20" fill="none" xmlns="http://www.w3.org/2000/svg">
<path d="M10.5919 4.23676H9.03428L4.29907 7.72585V8.78504L10.5919 4.23676Z" fill="#293340"/>
<path d="M4.29907 5.919V7.04049L8.162 4.23676H6.66667L4.29907 5.919Z" fill="#293340"/>
<path d="M19.2523 7.35202L14.6418 10.7165L15.3894 11.2773L19.2523 8.41121V7.35202Z" fill="#293340"/>
<path d="M19.2523 6.66666V5.60747L13.4579 9.84423L14.2056 10.405L19.2523 6.66666Z" fill="#293340"/>
<path d="M12.9595 9.53271L19.2524 4.92211V4.23676H18.7539L12.2119 8.97196L12.9595 9.53271Z" fill="#293340"/>
<path d="M5.73209 4.23676H4.29907V5.29595L5.73209 4.23676Z" fill="#293340"/>
<path d="M7.28973 11.9003L11.7757 8.59813L17.8193 4.23676H16.324L4.29907 13.0218V15.8255H7.28973V11.9003Z" fill="#293340"/>
<path d="M15.8878 11.5888L16.2617 11.9003V15.8255H19.2523V9.09657L15.8878 11.5888Z" fill="#293340"/>
<path d="M12.9595 4.23676H11.4642L4.29907 9.4704V10.5919L12.9595 4.23676Z" fill="#293340"/>
<path d="M15.3894 4.23676H13.8941L4.29907 11.2149V12.3364L15.3894 4.23676Z" fill="#293340"/>
<path d="M22.9907 15.2648V4.6729H26.7913C28.0374 4.6729 28.972 4.92212 29.595 5.48287C30.2181 6.04361 30.5296 6.79128 30.5296 7.85047C30.5296 8.90966 30.2181 9.65732 29.6573 10.2181C29.0343 10.7788 28.162 11.028 27.0405 11.028H25.0467V15.3271H22.9907V15.2648ZM24.9844 9.28349H26.4798C27.2274 9.28349 27.7259 9.15888 28.0374 8.97196C28.3489 8.72274 28.4735 8.34891 28.4735 7.85047C28.4735 7.28972 28.3489 6.91589 28.0374 6.66667C27.7259 6.41745 27.2274 6.35514 26.4798 6.35514H24.9844V9.28349Z" fill="#293340"/>
<path d="M30.3427 15.2648L33.5203 4.6106H36.0125L39.19 15.2648H37.1963L36.5109 12.9595H32.8349L32.1495 15.2648H30.3427ZM33.3956 11.2773H36.0748L34.7041 6.54206L33.3956 11.2773Z" fill="#293340"/>
<path d="M40.4361 15.2648V4.6729H44.0498C45.4206 4.6729 46.4174 4.92212 47.0405 5.48287C47.7259 5.98131 48.0374 6.79128 48.0374 7.85047C48.0374 8.53583 47.8505 9.09657 47.5389 9.59502C47.2274 10.0312 46.729 10.405 46.1059 10.5296L48.4735 15.3271H46.3551L44.2368 10.9657H42.4299V15.2648H40.4361ZM42.4299 9.28349H44.1745C44.7975 9.28349 45.2959 9.15888 45.6075 8.90966C45.919 8.66044 46.0436 8.2866 46.0436 7.78816C46.0436 7.28972 45.919 6.91589 45.6075 6.66667C45.2959 6.41745 44.8598 6.29284 44.1745 6.29284H42.4299V9.28349Z" fill="#293340"/>
<path d="M50.405 15.2648V4.6729H52.3988V15.3271H50.405V15.2648Z" fill="#293340"/>
<path d="M54.2056 12.8972L56.0125 12.0872C56.324 12.648 56.6355 13.0841 56.947 13.3333C57.3209 13.5826 57.6947 13.7072 58.1932 13.7072C58.7539 13.7072 59.1277 13.5826 59.4393 13.3333C59.7508 13.0841 59.8754 12.7726 59.8754 12.3364C59.8754 12.0249 59.7508 11.7134 59.5639 11.5265C59.3146 11.2773 58.9408 11.0903 58.3178 10.8411C58.2555 10.7788 58.1308 10.7788 57.9439 10.7165C56.8847 10.3427 56.1994 10.0311 55.7632 9.71962C55.3894 9.4704 55.0779 9.15887 54.8287 8.72274C54.6417 8.34891 54.5171 7.85046 54.5171 7.35202C54.5171 6.47975 54.8287 5.79439 55.4517 5.29595C56.0748 4.7975 56.947 4.48598 57.9439 4.48598C58.8785 4.48598 59.6262 4.67289 60.1869 5.04673C60.81 5.42056 61.2461 6.04361 61.4953 6.79127L59.8131 7.53894C59.5639 7.04049 59.3146 6.72897 59.0031 6.47975C58.6916 6.29283 58.3178 6.16822 57.8816 6.16822C57.4455 6.16822 57.134 6.29283 56.8847 6.47975C56.6355 6.66666 56.5109 6.97819 56.5109 7.28972C56.5109 7.85046 57.134 8.34891 58.3178 8.84735C58.6916 8.97196 59.0031 9.09657 59.19 9.22118C60.1869 9.65732 60.9346 10.0935 61.3084 10.5296C61.6823 10.9657 61.8692 11.5888 61.8692 12.2741C61.8692 13.271 61.5576 14.0187 60.9346 14.5794C60.3115 15.1402 59.4393 15.4517 58.3178 15.4517C57.3209 15.4517 56.5109 15.2648 55.8255 14.8287C55.0779 14.3302 54.5794 13.7072 54.2056 12.8972Z" fill="#293340"/>
<path d="M63.5514 15.2648V4.6729H67.1651C68.5358 4.6729 69.5327 4.92212 70.1558 5.48287C70.7788 6.04361 71.1527 6.79128 71.1527 7.85047C71.1527 8.53583 70.9657 9.09657 70.6542 9.59502C70.3427 10.0312 69.8442 10.405 69.2212 10.5296L71.5888 15.3271H69.4704L67.4143 11.028H65.6075V15.3271H63.5514V15.2648ZM65.5452 9.28349H67.2897C67.9128 9.28349 68.4112 9.15888 68.7228 8.90966C69.0343 8.66044 69.1589 8.2866 69.1589 7.78816C69.1589 7.28972 69.0343 6.91589 68.7228 6.66667C68.4112 6.41745 67.9751 6.29284 67.2897 6.29284H65.5452V9.28349Z" fill="#293340"/>
<path d="M73.3956 15.2648V4.6729H80.3115V6.41745H75.3894V8.90966H78.9408V10.5919H75.3894V13.4579H80.4984V15.2648H73.3956Z" fill="#293340"/>
<path d="M82.1184 15.2648V4.6729H84.2368L87.2897 10.0312C87.5389 10.4673 87.7259 10.8411 87.9128 11.2773C88.0997 11.7134 88.2866 12.1495 88.4735 12.5857C88.4112 12.2741 88.4112 11.9626 88.3489 11.5888C88.2866 11.215 88.2866 10.8411 88.2866 10.4673V4.6729H90.1558V15.3271H88.2866L84.9844 9.84424C84.7975 9.53271 84.6106 9.15888 84.4237 8.72274C84.2368 8.2866 83.9875 7.78816 83.8006 7.28972C83.8629 7.60125 83.8629 7.91277 83.9252 8.2243C83.9252 8.59813 83.9875 8.97196 83.9875 9.4081V15.2648H82.1184Z" fill="#293340"/>
<path d="M91.9003 9.96884C91.9003 8.2243 92.2741 6.91588 93.0841 5.919C93.8941 4.98442 94.9533 4.48598 96.324 4.48598C97.6947 4.48598 98.7539 4.98442 99.5639 5.919C100.374 6.85358 100.748 8.2243 100.748 9.96884C100.748 11.6511 100.374 13.0218 99.5639 13.9564C98.7539 14.891 97.6947 15.3894 96.324 15.3894C94.9533 15.3894 93.8941 14.891 93.0841 13.9564C92.2741 13.0218 91.9003 11.7134 91.9003 9.96884ZM93.8941 9.96884C93.8941 11.1526 94.081 12.0872 94.5171 12.7103C94.891 13.3333 95.514 13.6449 96.324 13.6449C97.134 13.6449 97.6947 13.3333 98.1308 12.7103C98.5047 12.0872 98.7539 11.1526 98.7539 9.96884C98.7539 8.78504 98.567 7.85046 98.1308 7.22741C97.6947 6.60436 97.134 6.29283 96.324 6.29283C95.514 6.29283 94.9533 6.60436 94.5171 7.22741C94.1433 7.85046 93.8941 8.78504 93.8941 9.96884Z" fill="#293340"/>
<path d="M104.548 15.2648L101.371 4.6106H103.364L105.794 13.271L108.162 4.6106H110.156L106.978 15.2648H104.548Z" fill="#293340"/>
<path d="M110.093 15.2648L113.271 4.6106H115.763L118.941 15.2648H116.947L116.262 12.9595H112.586L111.9 15.2648H110.093ZM113.146 11.2773H115.826L114.455 6.54206L113.146 11.2773Z" fill="#293340"/>
<path d="M121.184 15.2648V6.41745H118.38V4.6729H125.981V6.41745H123.178V15.2648H121.184Z" fill="#293340"/>
<path d="M127.664 15.2648V4.6729H129.657V15.3271H127.664V15.2648Z" fill="#293340"/>
<path d="M131.651 9.96884C131.651 8.2243 132.025 6.91588 132.835 5.919C133.645 4.98442 134.704 4.48598 136.075 4.48598C137.446 4.48598 138.505 4.98442 139.315 5.919C140.125 6.85358 140.498 8.2243 140.498 9.96884C140.498 11.6511 140.125 13.0218 139.315 13.9564C138.505 14.891 137.446 15.3894 136.075 15.3894C134.704 15.3894 133.645 14.891 132.835 13.9564C132.025 13.0218 131.651 11.7134 131.651 9.96884ZM133.645 9.96884C133.645 11.1526 133.832 12.0872 134.268 12.7103C134.642 13.3333 135.265 13.6449 136.075 13.6449C136.885 13.6449 137.446 13.3333 137.882 12.7103C138.255 12.0872 138.505 11.1526 138.505 9.96884C138.505 8.78504 138.318 7.85046 137.882 7.22741C137.446 6.60436 136.885 6.29283 136.075 6.29283C135.265 6.29283 134.704 6.60436 134.268 7.22741C133.832 7.85046 133.645 8.78504 133.645 9.96884Z" fill="#293340"/>
<path d="M142.181 15.2648V4.6729H144.299L147.352 10.0312C147.601 10.4673 147.788 10.8411 147.975 11.2773C148.162 11.7134 148.349 12.1495 148.536 12.5857C148.474 12.2741 148.474 11.9626 148.411 11.5888C148.349 11.215 148.349 10.8411 148.349 10.4673V4.6729H150.218V15.3271H148.349L145.047 9.84424C144.86 9.53271 144.673 9.15888 144.486 8.72274C144.299 8.2866 144.05 7.78816 143.863 7.28972C143.925 7.60125 143.925 7.91277 143.988 8.2243C143.988 8.59813 144.05 8.97196 144.05 9.4081V15.2648H142.181Z" fill="#293340"/>
</svg>
