<svg width="30" height="30" viewBox="0 0 30 30" fill="none" xmlns="http://www.w3.org/2000/svg">
<path d="M15 1.45048C9.67157 1.3782 4.53741 4.80746 2.51626 9.72966C0.405158 14.5659 1.50206 20.5737 5.1949 24.3455C8.74662 28.1686 14.5985 29.5718 19.4994 27.783C24.5786 26.0534 28.3284 21.0653 28.5322 15.6967C28.8741 10.4214 25.7704 5.15831 21.0182 2.86039C19.1574 1.93177 17.0794 1.4475 15 1.45048ZM15 2.91532C20.263 2.82378 25.2683 6.60433 26.6272 11.6887C28.0485 16.4774 26.126 22.0218 21.9996 24.858C17.7133 28.0085 11.357 27.7806 7.30927 24.3284C3.23094 21.0768 1.7711 15.0622 3.86355 10.2925C5.67714 5.88317 10.2296 2.85935 15 2.91532ZM8.85319 10.3121V19.6885H21.1469V10.3121H8.85319V10.3121ZM11.5842 11.777H18.4149C17.205 12.5215 15.995 14.1559 14.7853 14.3342C13.7183 13.4817 12.6512 12.6294 11.5841 11.777H11.5842ZM19.6838 12.6394V18.2236H10.3163V12.6398C11.877 13.8872 13.4378 15.1346 14.9987 16.3819C16.5604 15.1344 18.1221 13.8869 19.6838 12.6394Z" fill="#4F5C6C"/>
</svg>
