<svg width="25" height="25" viewBox="0 0 25 25" fill="none" xmlns="http://www.w3.org/2000/svg">
<path fill-rule="evenodd" clip-rule="evenodd" d="M20.3125 13.9062C20.4688 14.8437 20.625 15.625 20.9375 16.5625L21.875 19.2188L21.0938 20.3125H15.625C15.625 21.0938 15.3125 21.875 14.6875 22.5C14.0625 23.125 13.2812 23.4375 12.5 23.4375C11.7188 23.4375 10.7812 23.125 10.3125 22.5C9.6875 21.875 9.375 21.0938 9.375 20.3125H3.90625L3.125 19.2188L4.0625 16.5625C4.375 15.3125 4.6875 14.0625 4.6875 12.8125V9.375C4.6875 8.28125 4.84375 7.1875 5.3125 6.25C5.78125 5.15625 6.40625 4.375 7.1875 3.59375C7.96875 2.8125 8.90625 2.34375 10 2.03125C10.7812 1.71875 11.7188 1.5625 12.5 1.5625C12.1875 2.03125 11.875 2.65625 11.5625 3.28125C11.25 3.28125 10.9375 3.28125 10.4688 3.59375C9.6875 3.75 8.90625 4.21875 8.28125 4.84375C7.65625 5.3125 7.03125 6.09375 6.71875 6.875C6.40625 7.65625 6.25 8.4375 6.25 9.375V12.8125C6.25 14.2188 5.9375 15.625 5.625 17.0312L5 18.75H20L19.375 17.0312C19.1016 16.2094 18.9469 15.2656 18.8078 14.4156L18.75 14.0625C19.375 14.0625 19.8438 14.0625 20.3125 13.9062ZM12.5 21.875C12.8125 21.875 13.2812 21.7188 13.5938 21.4062C13.9062 21.0938 14.0625 20.7812 14.0625 20.3125H10.9375C10.9375 20.7812 11.0938 21.0938 11.4062 21.4062C11.7188 21.7188 12.1875 21.875 12.5 21.875ZM23.4375 6.25C23.4375 7.4932 22.9436 8.68549 22.0646 9.56456C21.1855 10.4436 19.9932 10.9375 18.75 10.9375C17.5068 10.9375 16.3145 10.4436 15.4354 9.56456C14.5564 8.68549 14.0625 7.4932 14.0625 6.25C14.0625 5.0068 14.5564 3.81451 15.4354 2.93544C16.3145 2.05636 17.5068 1.5625 18.75 1.5625C19.9932 1.5625 21.1855 2.05636 22.0646 2.93544C22.9436 3.81451 23.4375 5.0068 23.4375 6.25Z" fill="#EF3024"/>
<ellipse cx="18.75" cy="6.25008" rx="4.58333" ry="4.58333" fill="#EF3024"/>
</svg>
