<svg width="25" height="25" viewBox="0 0 25 25" fill="none" xmlns="http://www.w3.org/2000/svg">
<path d="M7.04261 0.217622C5.41402 -0.194349 3.70714 -0.0195733 2.36981 0.726344C1.00744 1.48474 0.0522057 2.82989 0.00522716 4.62914C-0.0668066 7.44115 0.586195 11.2144 3.17941 15.6431C5.73974 20.0172 8.56628 22.6388 10.9121 24.1962C12.3935 25.1809 14.0299 25.2074 15.4283 24.566C16.8063 23.934 17.9244 22.6716 18.5054 21.1064C18.65 20.7171 18.708 20.3012 18.6756 19.8874C18.6432 19.4736 18.521 19.0717 18.3175 18.7095L16.8235 16.052C16.3641 15.2348 15.6249 14.6097 14.7411 14.2908C13.8572 13.9719 12.8878 13.9805 12.0098 14.3151L10.9669 14.7131C10.4611 14.905 9.996 14.8161 9.73292 14.557C8.84815 13.6909 8.21551 12.5159 7.92894 11.2488C7.83811 10.8493 8.0229 10.378 8.4645 10.0456L9.40563 9.33716C10.1665 8.76502 10.6917 7.93593 10.8829 7.00538C11.074 6.07482 10.9179 5.10675 10.4439 4.28271L8.92175 1.63767C8.7201 1.28749 8.44982 0.981308 8.127 0.73735C7.80417 0.493392 7.43539 0.316644 7.04261 0.217622ZM1.57118 4.66971C1.6025 3.46189 2.21635 2.59894 3.134 2.0871C4.0767 1.56121 5.36391 1.40048 6.65739 1.72818C7.04105 1.82493 7.36676 2.07149 7.56407 2.41324L9.08461 5.05828C9.36901 5.5525 9.46277 6.13311 9.34833 6.69129C9.23388 7.24946 8.91908 7.74689 8.46293 8.09032L7.52179 8.79879C6.7075 9.4105 6.14376 10.4592 6.40057 11.5905C6.74821 13.1229 7.5171 14.5757 8.63518 15.6696C9.45261 16.4686 10.6177 16.5154 11.5259 16.169L12.5689 15.7711C13.0958 15.5701 13.6777 15.5648 14.2082 15.7562C14.7387 15.9476 15.1824 16.3229 15.458 16.8135L16.9504 19.471C17.1383 19.805 17.1696 20.2044 17.0365 20.5634C16.5824 21.7883 15.7289 22.7075 14.7737 23.146C13.8388 23.5751 12.7818 23.5626 11.7812 22.8963C9.63426 21.47 6.97371 19.0232 4.53083 14.8551C2.08638 10.6745 1.50697 7.18835 1.57274 4.67128L1.57118 4.66971Z" fill="white"/>
<path d="M16.7641 0.133497C16.5826 0.0329269 16.3685 0.00832257 16.1688 0.0650966C15.9691 0.121871 15.8002 0.255372 15.6993 0.436233C15.5983 0.617094 15.5737 0.830499 15.6306 1.0295C15.6876 1.2285 15.8216 1.3968 16.0031 1.49737L16.6044 1.83132C18.4829 2.87124 20.0809 4.34894 21.2617 6.13814C22.4424 7.92733 23.171 9.97482 23.385 12.1056L23.4351 12.5972C23.441 12.7024 23.4682 12.8053 23.5151 12.8997C23.5621 12.9942 23.6277 13.0782 23.7081 13.1466C23.7884 13.2151 23.8819 13.2666 23.9828 13.2981C24.0837 13.3296 24.19 13.3404 24.2952 13.3299C24.4004 13.3193 24.5024 13.2877 24.595 13.2368C24.6876 13.1859 24.7689 13.1168 24.8339 13.0338C24.899 12.9507 24.9465 12.8554 24.9736 12.7535C25.0007 12.6517 25.0069 12.5454 24.9916 12.4411L24.9431 11.9511C24.7042 9.56917 23.8899 7.2803 22.5701 5.2802C21.2502 3.28009 19.4639 1.62825 17.3639 0.465883L16.7641 0.133497Z" fill="white"/>
<path d="M14.9288 4.3155C15.0357 4.13819 15.209 4.01047 15.4104 3.96042C15.6119 3.91038 15.825 3.94212 16.003 4.04866L16.1972 4.16414C17.4609 4.91951 18.545 5.93932 19.3745 7.1531C20.204 8.36687 20.7591 9.74566 21.0015 11.1942L21.0704 11.6108C21.0901 11.713 21.0891 11.8181 21.0675 11.9198C21.0458 12.0216 21.004 12.1181 20.9444 12.2035C20.8848 12.2889 20.8086 12.3616 20.7204 12.4173C20.6322 12.4729 20.5337 12.5105 20.4307 12.5276C20.3278 12.5448 20.2224 12.5413 20.1208 12.5173C20.0192 12.4932 19.9235 12.4492 19.8392 12.3878C19.7549 12.3264 19.6839 12.2488 19.6301 12.1595C19.5764 12.0703 19.5411 11.9713 19.5264 11.8683L19.4559 11.4516C19.251 10.2261 18.7815 9.0595 18.0799 8.03245C17.3783 7.00539 16.4613 6.14238 15.3923 5.50304L15.1981 5.386C15.1099 5.33335 15.0329 5.26389 14.9716 5.18159C14.9103 5.09929 14.8659 5.00577 14.8409 4.90636C14.8159 4.80695 14.8108 4.7036 14.8258 4.60222C14.8409 4.50084 14.8759 4.40341 14.9288 4.3155Z" fill="white"/>
</svg>
