<svg width="19" height="19" viewBox="0 0 19 19" fill="none" xmlns="http://www.w3.org/2000/svg">
<path d="M0.125 2.98958C0.125 2.22985 0.426803 1.50123 0.964017 0.964017C1.50123 0.426804 2.22985 0.125 2.98958 0.125H13.3687C13.8135 0.12489 14.2539 0.212412 14.6648 0.382566C15.0757 0.55272 15.4491 0.802171 15.7635 1.11667L17.8833 3.23646C18.5187 3.87187 18.875 4.73333 18.875 5.63125V16.0104C18.875 16.7702 18.5732 17.4988 18.036 18.036C17.4988 18.5732 16.7702 18.875 16.0104 18.875H2.98958C2.22985 18.875 1.50123 18.5732 0.964017 18.036C0.426803 17.4988 0.125 16.7702 0.125 16.0104V2.98958ZM2.98958 1.6875C2.27083 1.6875 1.6875 2.27083 1.6875 2.98958V16.0104C1.6875 16.7292 2.27083 17.3125 2.98958 17.3125H3.25V11.8438C3.25 11.2221 3.49693 10.626 3.93647 10.1865C4.37601 9.74693 4.97215 9.5 5.59375 9.5H13.4062C14.0279 9.5 14.624 9.74693 15.0635 10.1865C15.5031 10.626 15.75 11.2221 15.75 11.8438V17.3125H16.0104C16.7292 17.3125 17.3125 16.7292 17.3125 16.0104V5.63125C17.3125 5.14687 17.1208 4.68333 16.7781 4.34167L14.6583 2.22187C14.3892 1.95231 14.0424 1.77381 13.6667 1.71146V4.55208C13.6667 4.85987 13.606 5.16464 13.4883 5.449C13.3705 5.73335 13.1978 5.99173 12.9802 6.20936C12.7626 6.427 12.5042 6.59964 12.2198 6.71743C11.9355 6.83521 11.6307 6.89583 11.3229 6.89583H6.63542C6.01382 6.89583 5.41767 6.6489 4.97814 6.20936C4.5386 5.76983 4.29167 5.17368 4.29167 4.55208V1.6875H2.98958ZM14.1875 17.3125V11.8438C14.1875 11.6365 14.1052 11.4378 13.9587 11.2913C13.8122 11.1448 13.6135 11.0625 13.4062 11.0625H5.59375C5.38655 11.0625 5.18784 11.1448 5.04132 11.2913C4.89481 11.4378 4.8125 11.6365 4.8125 11.8438V17.3125H14.1875ZM5.85417 1.6875V4.55208C5.85417 4.98333 6.20417 5.33333 6.63542 5.33333H11.3229C11.5301 5.33333 11.7288 5.25102 11.8753 5.10451C12.0219 4.958 12.1042 4.75928 12.1042 4.55208V1.6875H5.85417Z" fill="#E98B85"/>
</svg>
