<svg width="14" height="11" viewBox="0 0 14 11" fill="none" xmlns="http://www.w3.org/2000/svg">
<path d="M11.1406 0.765634C11.3607 0.556086 11.6536 0.440239 11.9575 0.442538C12.2614 0.444838 12.5525 0.565104 12.7694 0.777959C12.9863 0.990814 13.1121 1.27961 13.1201 1.58341C13.1281 1.8872 13.0178 2.18224 12.8125 2.40626L6.5781 10.2031C6.4709 10.3186 6.34151 10.4113 6.19768 10.4756C6.05385 10.5399 5.89852 10.5746 5.74099 10.5775C5.58346 10.5804 5.42696 10.5515 5.28084 10.4926C5.13473 10.4336 5.002 10.3458 4.8906 10.2344L0.756222 6.10001C0.641086 5.99273 0.548739 5.86335 0.484689 5.7196C0.420639 5.57585 0.386198 5.42067 0.383422 5.26333C0.380646 5.10598 0.409591 4.94968 0.46853 4.80376C0.527469 4.65784 0.615195 4.52529 0.726474 4.41401C0.837754 4.30273 0.970307 4.21501 1.11623 4.15607C1.26214 4.09713 1.41844 4.06818 1.57579 4.07096C1.73314 4.07374 1.88831 4.10818 2.03206 4.17223C2.17581 4.23628 2.30519 4.32862 2.41247 4.44376L5.68435 7.71407L11.1109 0.80001C11.1207 0.78798 11.1311 0.776503 11.1422 0.765634H11.1406Z" fill="#7EE475"/>
</svg>
