<svg width="19" height="19" viewBox="0 0 19 19" fill="none" xmlns="http://www.w3.org/2000/svg">
<path d="M16.7917 0.125H2.20833C1.05208 0.125 0.125 1.05208 0.125 2.20833V6.375H2.20833V2.20833H16.7917V16.7917H2.20833V12.625H0.125V16.7917C0.125 17.3442 0.344493 17.8741 0.735194 18.2648C1.12589 18.6555 1.6558 18.875 2.20833 18.875H16.7917C17.3442 18.875 17.8741 18.6555 18.2648 18.2648C18.6555 17.8741 18.875 17.3442 18.875 16.7917V2.20833C18.875 1.6558 18.6555 1.12589 18.2648 0.735194C17.8741 0.344493 17.3442 0.125 16.7917 0.125ZM7.5 13.2292L8.97917 14.7083L14.1875 9.5L8.97917 4.29167L7.5 5.76042L10.1979 8.45833H0.125V10.5417H10.1979L7.5 13.2292Z" fill="#EF3024"/>
</svg>
