<svg width="30" height="30" viewBox="0 0 30 30" fill="none" xmlns="http://www.w3.org/2000/svg">
<path d="M15 8.29995C15.4418 8.29995 15.8 7.94178 15.8 7.49995C15.8 7.05812 15.4418 6.69995 15 6.69995C14.5581 6.69995 14.2 7.05812 14.2 7.49995C14.2 7.94178 14.5581 8.29995 15 8.29995Z" fill="#EF3024"/>
<path d="M22 21.8H8V23.3H22V21.8Z" fill="#EF3024"/>
<path d="M12.5 14.1L9.29995 17.3L8.19995 16.3L12.5 12L16 15.5L19.8 11.6L18.7 10.5H22V13.8L20.9 12.6L16 17.6L12.5 14.1Z" fill="#EF3024"/>
<path d="M6.3 28.2999C5.4 28.2999 4.6 28 4 27.2999C3.4 26.6999 3 25.9 3 25V7.49995C3 6.59995 3.3 5.79995 4 5.19995C4.6 4.59995 5.4 4.19995 6.3 4.19995H10.7L10.8 3.99995C10.9 3.79995 11 3.69995 11.2 3.49995C12.1 2.49995 13.2 1.89995 14.5 1.79995C14.7 1.79995 14.9 1.69995 15 1.69995C15.1 1.69995 15.3 1.69995 15.5 1.69995C16.8 1.79995 18 2.49995 18.8 3.39995C19 3.69995 19.1 3.89995 19.2 3.99995L19.3 4.19995H23.7C24.6 4.19995 25.4 4.49995 26 5.19995C26.6 5.79995 27 6.59995 27 7.49995V25C27 25.9 26.7 26.6999 26 27.2999C25.4 27.9 24.6 28.2999 23.7 28.2999H6.3ZM6.2 5.79995C5.8 5.79995 5.3 5.89995 5 6.29995C4.7 6.59995 4.5 6.99995 4.5 7.49995V25C4.5 25.5 4.7 25.9 5 26.2C5.3 26.5 5.8 26.7 6.2 26.7H23.7C24.2 26.7 24.6 26.5 24.9 26.2C25.2 25.9 25.4 25.4 25.4 25V7.49995C25.4 6.99995 25.2 6.59995 24.9 6.29995C24.6 5.99995 24.1 5.79995 23.7 5.79995H18.4C18.2 5.09995 17.8 4.59995 17.2 4.09995C16.6 3.59995 15.7 3.29995 14.9 3.29995C14.1 3.29995 13.3 3.59995 12.6 4.09995C12.1 4.49995 11.7 5.09995 11.4 5.79995H6.2Z" fill="#EF3024"/>
</svg>
