<svg width="8" height="6" viewBox="0 0 8 6" fill="none" xmlns="http://www.w3.org/2000/svg">
<path d="M6.59883 0.348738C6.72209 0.231391 6.88611 0.166517 7.05629 0.167804C7.22647 0.169092 7.3895 0.236441 7.51097 0.35564C7.63244 0.474839 7.70285 0.636564 7.70735 0.80669C7.71185 0.976817 7.65008 1.14204 7.53508 1.26749L4.04383 5.63374C3.98379 5.6984 3.91134 5.75029 3.83079 5.78631C3.75025 5.82233 3.66326 5.84173 3.57505 5.84337C3.48683 5.845 3.39919 5.82883 3.31736 5.79582C3.23554 5.7628 3.16121 5.71363 3.09883 5.65124L0.783577 3.33599C0.719101 3.27591 0.667387 3.20346 0.631519 3.12296C0.595651 3.04246 0.576364 2.95556 0.574809 2.86745C0.573254 2.77933 0.589464 2.6918 0.62247 2.61009C0.655476 2.52838 0.704602 2.45415 0.766918 2.39183C0.829235 2.32951 0.903464 2.28039 0.985179 2.24738C1.06689 2.21438 1.15442 2.19817 1.24253 2.19972C1.33065 2.20128 1.41755 2.22056 1.49805 2.25643C1.57855 2.2923 1.651 2.34401 1.71108 2.40849L3.54333 4.23986L6.5822 0.367988C6.58767 0.361252 6.59352 0.354825 6.5997 0.348738H6.59883Z" fill="#7EE475"/>
</svg>
